<?xml version="1.0" standalone="no"?>
<!DOCTYPE svg PUBLIC "-//W3C//DTD SVG 1.1//EN" "http://www.w3.org/Graphics/SVG/1.1/DTD/svg11.dtd" >
<svg xmlns="http://www.w3.org/2000/svg">
<metadata></metadata>
<defs>
<font id="psl_imperialregular" horiz-adv-x="0" >
<font-face units-per-em="2048" ascent="1638" descent="-410" />
<missing-glyph horiz-adv-x="450" />
<glyph />
<glyph unicode="&#xd;" horiz-adv-x="450" />
<glyph unicode=" "  horiz-adv-x="450" />
<glyph unicode="&#x09;" horiz-adv-x="450" />
<glyph unicode="&#xa0;" horiz-adv-x="450" />
<glyph unicode="!" horiz-adv-x="473" d="M143 944l23 -668h139l27 668h-189zM152 0h170v188h-170v-188z" />
<glyph unicode="&#x22;" horiz-adv-x="583" d="M106 606h150v338h-150v-338zM330 606h147v338h-147v-338z" />
<glyph unicode="#" horiz-adv-x="675" d="M41 276h109l-35 -276h106l37 276h123l-35 -276h107l34 276h113v109h-96l20 174h111v107h-96l32 278h-106l-33 -278h-127l35 278h-109l-32 -278h-121v-107h106l-22 -174h-121v-109zM270 385l21 174h125l-21 -174h-125z" />
<glyph unicode="$" horiz-adv-x="675" d="M70 672q0 -127 82 -195q45 -39 163 -90v-252l-24 -2q-45 0 -98 17l-52 20l-41 20l-16 -170l66 -18l55 -8q31 -8 98 -8l12 2v-107h58v111q117 16 176 78q39 39 55.5 87t16.5 111q0 123 -84 201q-23 20 -64 41.5t-100 48.5v250l8 2q92 0 174 -41l16 156q-92 35 -198 35v96 h-58v-101q-109 -16 -172 -79q-74 -78 -73 -205zM248 680q0 27 4 43t12 31q20 29 51 43v-211q-37 25 -51 43q-8 12 -12 22zM373 152v206q37 -25 53 -48t16 -56q0 -72 -69 -102z" />
<glyph unicode="%" horiz-adv-x="1216" d="M129 711q0 -117 53 -183q29 -35 65 -50t87 -15q98 0 147 63q54 70 54 185q0 119 -53.5 184.5t-147.5 65.5q-98 0 -152 -66q-29 -35 -41 -80t-12 -104zM256 711q0 51 16 100q18 41 62 41q37 0 55 -33q21 -32 21 -108q0 -16 -1 -40t-16 -59q-18 -41 -59 -41q-39 0 -62 41 q-4 10 -8 21.5t-6 21.5zM299 -29h98l527 1002h-101zM682 233q0 -119 53 -184q29 -35 65 -49t87 -14q104 0 153.5 64t49.5 183q0 117 -54.5 182.5t-148.5 65.5q-98 0 -152 -65q-29 -33 -41 -78t-12 -105zM809 233q0 49 16 99q23 41 62 41q45 0 63 -49q13 -36 13 -91v-20 q0 -6 -4.5 -32.5t-12.5 -47.5q-18 -41 -59 -41q-39 0 -58.5 32t-19.5 109z" />
<glyph unicode="&#x26;" horiz-adv-x="878" d="M74 258q0 -131 84 -203q47 -39 98 -54t121 -15q63 0 125 22q37 20 57 35q16 8 33 25q4 6 14 16l58 -84h210l-153 188q51 72 80 152q14 45 21 83t7 89h-147q0 -25 -1 -36t-3 -27l-10 -52q-8 -29 -18.5 -51t-20.5 -39l-158 189q82 55 117 98q27 33 37 68.5t10 82.5 q0 106 -78 166q-68 49 -164 50q-49 0 -93 -14.5t-81 -39.5q-84 -66 -84 -162q0 -72 35 -129l33 -43q20 -29 49 -55q-102 -51 -140 -109.5t-38 -150.5zM236 264q0 55 30 92q12 16 28.5 28.5t45.5 31.5l186 -236q-55 -55 -147 -55q-63 0 -103 39q-23 20 -31.5 44.5t-8.5 55.5z M297 727q0 49 27 76q33 25 71 24q37 0 64 -26q28 -29 28 -72q0 -39 -38 -80q-20 -23 -41 -37l-31 -18q-59 66 -66 78q-14 23 -14 55z" />
<glyph unicode="'" horiz-adv-x="337" d="M94 606h150v338h-150v-338z" />
<glyph unicode="(" horiz-adv-x="405" d="M47 416q0 -86 13.5 -166t35.5 -150q57 -152 146 -286h153q-41 72 -72.5 142.5t-54.5 139.5q-49 162 -49 320q0 86 13.5 169t35.5 158q12 33 25.5 67t28.5 69q18 39 35.5 71.5t37.5 71.5h-153q-51 -76 -87 -144.5t-57 -134.5q-51 -147 -51 -327z" />
<glyph unicode=")" horiz-adv-x="405" d="M8 -186h154q98 141 147 289.5t49 312.5q0 131 -29.5 246.5t-82.5 218.5q-20 39 -41 73.5t-43 67.5h-154q23 -39 42.5 -75t35.5 -70q14 -35 27.5 -69t21.5 -65q49 -154 49 -327q0 -84 -12 -160q-8 -43 -16.5 -81t-18.5 -71q-47 -143 -129 -290z" />
<glyph unicode="*" horiz-adv-x="743" d="M96 684l183 -43l-129 -143l120 -90l101 167l96 -167l123 90l-129 143l186 43l-43 141l-176 -75l23 194h-154l20 -196l-178 77z" />
<glyph unicode="+" horiz-adv-x="675" d="M41 283h235v-236h123v236h236v123h-236v235h-123v-235h-235v-123z" />
<glyph unicode="," horiz-adv-x="307" d="M-23 -147h152q49 37 78 92q29 51 29 114v119h-164v-121q0 -37 -9 -59q-4 -16 -9 -30.5t-13 -28.5l-33 -52q-10 -18 -31 -34z" />
<glyph unicode="-" horiz-adv-x="401" d="M41 293h319v143h-319v-143z" />
<glyph unicode="." horiz-adv-x="307" d="M72 0h164v164h-164v-164z" />
<glyph unicode="/" horiz-adv-x="473" d="M27 -14h125l299 975h-129z" />
<glyph unicode="0" horiz-adv-x="675" d="M43 469q0 -201 49 -317q74 -166 246 -166q168 0 242 157q55 119 55 326q0 104 -15.5 184t-41.5 144q-78 164 -240 164t-236 -158q-33 -61 -45 -146q-8 -45 -11 -89t-3 -99zM211 469l2 86l6 80q20 184 119 184q84 0 111 -131q8 -35 11 -87t3 -132l-4 -127q0 -49 -10 -90 q-29 -127 -111 -127q-86 0 -113 129q-8 35 -11 85t-3 130z" />
<glyph unicode="1" horiz-adv-x="675" d="M96 721l101 -111l127 119v-729h172v944h-152z" />
<glyph unicode="2" horiz-adv-x="675" d="M55 0h566v150h-349q70 76 111 120.5t53 61.5q158 190 158 352q0 137 -68.5 207t-197.5 70q-133 0 -252 -68v-158q35 29 61.5 38t38.5 15q47 20 69.5 21.5t39.5 1.5q59 0 98 -33t39 -94q0 -113 -154 -297l-213 -229v-158z" />
<glyph unicode="3" horiz-adv-x="675" d="M55 14q104 -29 221 -28q127 0 218 55q108 73 108 223q0 92 -44 153.5t-118 74.5q74 37 116 88t42 137q0 70 -26.5 119t-73.5 79q-72 45 -179 46q-63 0 -125.5 -13.5t-111.5 -36.5v-149q100 49 201 49q63 0 104 -28.5t41 -96.5q0 -123 -188 -123h-78v-149h84q86 0 136 -36 t50 -112q0 -68 -63 -104q-25 -16 -53.5 -22.5t-63.5 -6.5q-102 0 -197 43v-162z" />
<glyph unicode="4" horiz-adv-x="675" d="M20 197h365v-197h164v197h106v139h-106v608h-211l-318 -596v-151zM174 336l211 409v-409h-211z" />
<glyph unicode="5" horiz-adv-x="675" d="M78 10q23 -4 47.5 -8t50.5 -8q33 -6 47 -6q6 0 13 -2h16h22q166 0 256 88q97 96 97 229q0 166 -103 246q-80 61 -192 61l-45 -2l-31 -6v201h330v141h-496v-508q74 27 152 27q84 0 143 -37q72 -49 72 -127q0 -86 -68 -129q-59 -37 -133 -37q-51 0 -94 12l-84 33v-168z" />
<glyph unicode="6" horiz-adv-x="675" d="M53 424q0 -201 56 -305q78 -133 231 -133q143 0 217 92q68 86 68 246q0 135 -65.5 210.5t-182.5 75.5q-109 0 -166 -92q0 123 45 201q55 92 156 92l45 -2l41 -8q49 -14 82 -27v152q-23 10 -45.5 16t-42.5 10q-27 6 -42.5 7.5t-48.5 1.5q-190 0 -278 -175 q-70 -133 -70 -362zM223 293q0 78 30 128t85 50q59 0 87 -52t28 -126q0 -20 -2 -33.5t-7 -30.5q-6 -33 -20 -55q-31 -49 -84 -49q-59 0 -88 47q-16 25 -22.5 54.5t-6.5 66.5z" />
<glyph unicode="7" horiz-adv-x="675" d="M61 795h375l-315 -795h184l303 786v158h-547v-149z" />
<glyph unicode="8" horiz-adv-x="675" d="M43 256q0 -135 88 -209q80 -61 209 -61q135 0 215 68.5t80 203.5q0 164 -166 248q70 35 106.5 98.5t36.5 128.5q0 117 -80.5 172.5t-203.5 55.5q-119 0 -195 -66t-76 -184q0 -72 39 -129.5t103 -92.5q-156 -88 -156 -233zM211 258q0 57 33 96q14 20 33.5 33.5t44.5 26.5 q70 -33 98 -58q43 -47 43 -106q0 -61 -37 -93t-86 -32q-57 0 -93 40t-36 93zM219 707q0 55 38 83.5t87 28.5q107 0 107 -119q0 -43 -31 -84q-31 -43 -66 -53l-53 27l-37 24q-45 39 -45 93z" />
<glyph unicode="9" horiz-adv-x="675" d="M53 621q0 -125 72 -209q74 -80 178 -80q53 0 100 26q49 31 66 66q0 -113 -47 -191q-57 -92 -156 -100h-20q-35 0 -80 10l-70 27v-152q39 -18 86 -24q27 -4 41.5 -6t50.5 -2q188 0 279 170q39 70 55 157q17 94 17 207q0 98 -15.5 173t-42.5 130q-76 137 -231 138 q-141 0 -212 -90.5t-71 -249.5zM217 649q0 70 29.5 120t83.5 50q61 0 88.5 -47t27.5 -121t-28 -127q-33 -51 -84 -51q-61 0 -88 51q-12 20 -20.5 43t-8.5 82z" />
<glyph unicode=":" horiz-adv-x="307" d="M72 0h164v164h-164v-164zM72 532h164v164h-164v-164z" />
<glyph unicode=";" horiz-adv-x="307" d="M-23 -147h152q49 37 78 92q29 51 29 114v119h-164v-121q0 -37 -9 -59q-4 -16 -9 -30.5t-13 -28.5l-33 -52q-10 -18 -31 -34zM72 532h164v164h-164v-164z" />
<glyph unicode="&#x3c;" horiz-adv-x="675" d="M51 285l574 -293v135l-422 215l422 215v137l-574 -295v-114z" />
<glyph unicode="=" horiz-adv-x="675" d="M41 158h594v123h-594v-123zM41 408h594v122h-594v-122z" />
<glyph unicode="&#x3e;" horiz-adv-x="675" d="M51 -8l574 293v114l-574 295v-137l422 -215l-422 -215v-135z" />
<glyph unicode="?" horiz-adv-x="608" d="M41 915l12 -149q29 14 54.5 23.5t46.5 17.5q23 6 43 9t45 3q33 0 56.5 -8t41.5 -23q41 -29 41 -92q0 -43 -29 -88q-4 -8 -19.5 -26.5t-41.5 -51.5q-41 -51 -62 -100q-27 -68 -26 -154h149q0 80 103 213q104 132 104 228q0 123 -86 188q-74 55 -190 56l-60 -5l-61 -10 q-35 -8 -64.5 -15t-56.5 -16zM190 0h172v188h-172v-188z" />
<glyph unicode="@" horiz-adv-x="1069" d="M49 471q0 -231 156 -367q137 -119 332 -118q135 0 241 47q59 29 101 65q43 39 82 95h-119q-68 -55 -146 -70q-23 -6 -38 -8t-33 -2l-88 -4q-152 0 -250 102q-98 104 -99 260q0 154 109 256q55 57 119.5 83t150.5 26q145 0 234 -58q59 -37 86.5 -90t27.5 -129 q0 -121 -51 -184q-47 -55 -102 -56q-20 6 -21 21l4 20q6 14 7 25l73 328h-110l-17 -64q-66 86 -157 86q-115 0 -195 -98t-80 -227q0 -96 60 -162q63 -61 149 -62q37 0 74 19q37 20 63 51q4 -35 15 -49q20 -20 55 -21q96 0 205 84q135 113 135 293q0 195 -148 303 q-127 94 -307 95q-225 0 -370 -144q-147 -145 -148 -346zM406 430q0 63 43 117q49 55 108 55q45 0 71.5 -28.5t26.5 -77.5q0 -68 -45 -121q-47 -55 -106 -56q-51 6 -74 29q-25 37 -24 82z" />
<glyph unicode="A" horiz-adv-x="837" d="M-8 0h176l74 217h344l71 -217h191l-334 944h-195zM289 365l125 389l125 -389h-250z" />
<glyph unicode="B" horiz-adv-x="702" d="M78 0h297q115 0 190 47q109 71 109 225q0 84 -53 148q-27 33 -63 49t-79 23q78 14 123 69q47 55 47 141q0 106 -59 170q-35 39 -87 55.5t-128 16.5h-297v-944zM248 150v272h80q80 0 121 -25q55 -36 55 -116q0 -76 -58 -109q-31 -18 -63.5 -20t-54.5 -2h-80zM248 563v232 h65q72 0 113 -19q53 -28 53 -98q0 -68 -55 -94q-16 -10 -29 -13q-8 -2 -22.5 -5t-55.5 -3h-69z" />
<glyph unicode="C" horiz-adv-x="702" d="M37 455q0 -233 129 -357q63 -59 145 -85.5t193 -26.5l45 4l51 6l96 18v158q-12 -8 -22 -12l-12 -4l-48 -13q-31 -8 -57 -8q-8 0 -16 -2h-17h-20q-70 0 -122 24.5t-91 69.5q-78 96 -78 242q0 143 78 244q80 98 209 98q45 0 101 -12.5t93 -36.5v158q-51 25 -94 30 q-45 10 -96 11q-111 0 -198 -34t-146 -98q-123 -135 -123 -374z" />
<glyph unicode="D" horiz-adv-x="837" d="M78 0h233q215 0 342 102q146 117 146 369q0 250 -146 371q-131 102 -342 102h-233v-944zM248 150v645h94q59 0 109.5 -20.5t85.5 -55.5q86 -92 86 -248q0 -80 -21.5 -143.5t-64.5 -104.5q-77 -73 -192 -73h-3h-94z" />
<glyph unicode="E" horiz-adv-x="634" d="M78 0h504v150h-334v264h303v149h-303v232h330v149h-500v-944z" />
<glyph unicode="F" horiz-adv-x="567" d="M78 0h170v414h289v149h-289v232h303v149h-473v-944z" />
<glyph unicode="G" horiz-adv-x="837" d="M37 455q0 -223 131 -346t336 -123l63 4l68 10l92 18l51 15v508h-344v-150h180v-246q-47 -12 -110 -12q-70 0 -122 24.5t-91 69.5q-78 96 -78 242q0 76 21.5 137.5t60.5 108.5q84 96 227 96q57 0 120 -12.5t110 -36.5v158q-63 25 -119 30q-51 10 -129 11q-215 0 -342 -140 q-125 -137 -125 -366z" />
<glyph unicode="H" horiz-adv-x="837" d="M78 0h170v414h342v-414h170v944h-170v-381h-342v381h-170v-944z" />
<glyph unicode="I" horiz-adv-x="296" d="M63 0h170v944h-170v-944z" />
<glyph unicode="J" horiz-adv-x="432" d="M6 2q39 -12 60 -12q16 -4 45 -4h24q123 0 184 82q50 67 50 157v719h-170v-629l-4 -63l-11 -45q-27 -57 -96 -57l-47 4l-35 12v-164z" />
<glyph unicode="K" horiz-adv-x="770" d="M78 0h170l2 438l307 -438h223l-366 500l350 444h-209l-307 -405v405h-170v-944z" />
<glyph unicode="L" horiz-adv-x="567" d="M78 0h500v150h-330v794h-170v-944z" />
<glyph unicode="M" horiz-adv-x="1107" d="M78 0h164l2 778l227 -778h164l231 778v-778h164v944h-272l-205 -715l-203 715h-272v-944z" />
<glyph unicode="N" horiz-adv-x="837" d="M70 0h161l5 707l323 -707h209v944h-164l-2 -706l-323 706h-209v-944z" />
<glyph unicode="O" horiz-adv-x="905" d="M37 475q0 -117 27.5 -205t78.5 -153q106 -131 310 -131q199 0 307 135q108 139 108 354q0 219 -110.5 352.5t-304.5 133.5q-199 0 -307.5 -131.5t-108.5 -354.5zM213 475q0 72 14 127q10 33 20.5 59.5t24.5 49.5q63 100 181 100q121 0 182 -106q55 -97 55 -230 q0 -145 -53 -235q-63 -106 -184 -107q-123 0 -187 107q-29 47 -41 103t-12 132z" />
<glyph unicode="P" horiz-adv-x="634" d="M63 0h170v358h72q150 0 234 68q94 79 94 231q0 160 -107 230q-88 57 -247 57h-216v-944zM233 506v289h60q70 0 117 -35q45 -39 45 -113q0 -80 -49 -112q-16 -12 -36 -20.5t-77 -8.5h-60z" />
<glyph unicode="Q" horiz-adv-x="905" d="M37 475q0 -117 27.5 -205t78.5 -153q106 -131 310 -131l41 2l147 -164h207l-195 209q109 66 160 170q55 116 55 272q0 219 -110.5 352.5t-304.5 133.5q-199 0 -307.5 -131.5t-108.5 -354.5zM213 475q0 72 14 127q10 33 20.5 59.5t24.5 49.5q63 100 181 100 q121 0 182 -106q55 -97 55 -230q0 -145 -53 -235q-63 -106 -184 -107q-123 0 -187 107q-29 47 -41 103t-12 132z" />
<glyph unicode="R" horiz-adv-x="702" d="M63 0h170v391h56q43 0 64.5 -13t31.5 -36l23 -47l100 -295h190l-137 369q-6 18 -8 20q-2 10 -12 27q-12 18 -23 28q-25 20 -47 25q84 16 129 72q27 33 37 67.5t10 79.5q0 176 -131 227q-70 29 -270 29h-183v-944zM233 541v254h56q41 0 71.5 -6.5t51.5 -14.5 q57 -30 57 -102q0 -78 -57 -111q-35 -20 -123 -20h-56z" />
<glyph unicode="S" horiz-adv-x="634" d="M49 672q0 -170 186.5 -258t186.5 -160q0 -61 -51 -94q-45 -27 -101 -27q-59 0 -108 14q-53 14 -99 43v-170l66 -18l55 -8q31 -8 99 -8q141 0 223 63q94 76 94 219q0 178 -186 264q-186 88 -187 148q0 70 49 104q39 27 95 27q102 0 180 -41v156q-96 35 -205 35 q-121 0 -205 -66q-92 -78 -92 -223z" />
<glyph unicode="T" horiz-adv-x="634" d="M-10 795h241v-795h172v795h244v149h-657v-149z" />
<glyph unicode="U" horiz-adv-x="837" d="M72 340q0 -193 92 -274q82 -80 254 -80q174 0 260 84t86 270v604h-168v-545q0 -129 -43 -197.5t-135 -68.5q-98 0 -136 68.5t-38 197.5v545h-172v-604z" />
<glyph unicode="V" horiz-adv-x="770" d="M-6 944l289 -944h211l286 944h-170l-217 -741l-219 741h-180z" />
<glyph unicode="W" horiz-adv-x="1175" d="M-6 944l223 -944h219l154 754l153 -754h220l221 944h-164l-164 -756l-149 756h-232l-147 -756l-156 756h-178z" />
<glyph unicode="X" horiz-adv-x="770" d="M-6 0h190l197 369l197 -369h202l-280 492l256 452h-183l-180 -338l-180 338h-197l254 -452z" />
<glyph unicode="Y" horiz-adv-x="770" d="M-6 944l309 -571v-373h170v373l305 571h-182l-203 -397l-203 397h-196z" />
<glyph unicode="Z" horiz-adv-x="634" d="M25 0h587v150h-411l403 638v156h-565v-149h383l-397 -641v-154z" />
<glyph unicode="[" horiz-adv-x="405" d="M88 -186h270v131h-114v944h114v133h-270v-1208z" />
<glyph unicode="\" horiz-adv-x="473" d="M25 961l297 -975h127l-297 975h-127z" />
<glyph unicode="]" horiz-adv-x="405" d="M45 -55v-131h272v1208h-272v-133h117v-944h-117z" />
<glyph unicode="^" horiz-adv-x="675" d="M76 424h117l145 377l147 -377h117l-211 520h-106z" />
<glyph unicode="_" horiz-adv-x="675" d="M0 -100v-82h676v82h-676z" />
<glyph unicode="`" horiz-adv-x="337" d="M35 987l168 -196h100l-100 196h-168z" />
<glyph unicode="a" horiz-adv-x="634" d="M25 190q0 -94 63 -151q70 -53 156 -53q59 0 110 28q53 37 84 90l2 -14v-16v-23l6 -51h144l-4 78l-4 47v31v174v90q0 154 -65.5 223.5t-207.5 69.5q-57 0 -112.5 -14.5t-104.5 -39.5v-155q88 76 197 76q39 0 66.5 -9.5t41.5 -23.5q33 -33 33 -117h-90l-59 -4l-56 -6 q-57 -10 -100 -33q-25 -14 -39 -31q-18 -18 -33 -43q-16 -23 -22 -53.5t-6 -69.5zM178 201q0 74 64 100q43 20 118 21h70l-4 -46l-4 -36q-4 -16 -11.5 -31.5t-15.5 -30.5q-41 -61 -112 -61q-8 0 -16.5 1t-24.5 5q-10 4 -18.5 7t-16.5 7q-29 23 -29 64z" />
<glyph unicode="b" horiz-adv-x="702" d="M63 0h158l4 86q33 -51 82 -78q58 -22 105 -22h4q133 0 205 110q57 96 57 254q0 160 -60 254q-70 109 -202 109q-20 0 -47 -3t-62 -26q-45 -27 -80 -78v408h-164v-1014zM227 350q0 82 39 151.5t109 69.5q74 0 106 -75q27 -56 27 -146q0 -82 -29 -149q-37 -76 -106 -76 q-78 0 -115 76q-31 63 -31 149z" />
<glyph unicode="c" horiz-adv-x="499" d="M25 352q0 -166 78.5 -266t228.5 -100q96 0 164 20v152q-12 -8 -27 -13l-35 -10q-16 -8 -35 -8q-6 0 -12 -2h-10h-15q-86 0 -127.5 61.5t-41.5 165.5q0 102 45 160q27 33 53 45q31 14 67 14q78 0 127 -24v143q-45 16 -75 17q-47 6 -84 6q-137 0 -222 -103 q-80 -102 -79 -258z" />
<glyph unicode="d" horiz-adv-x="702" d="M25 350q0 -154 59 -256q71 -108 199 -108h2q59 0 108 20q55 29 88 72v-78h158v1014h-164l-2 -400q-72 98 -188 99q-135 0 -203 -109q-57 -90 -57 -254zM193 350q0 49 8 80q6 39 20 66q38 75 105 75h2q76 0 114 -75q33 -58 33 -146q0 -43 -9 -81t-24 -68q-39 -76 -110 -76 q-74 0 -111 78q-16 31 -22 66.5t-6 80.5z" />
<glyph unicode="e" horiz-adv-x="634" d="M25 344q0 -172 86 -265t239 -93q125 0 215 53v147q-57 -35 -105 -52t-104 -17q-78 0 -129 45q-25 25 -39 57q-10 35 -10 74h432q0 188 -59 297q-72 123 -227 123q-141 0 -222 -105q-41 -53 -59 -117.5t-18 -146.5zM178 416q8 80 41 121q39 43 105 43q70 0 98 -48 q35 -46 35 -116h-279z" />
<glyph unicode="f" horiz-adv-x="452" d="M14 563h119v-563h162v563h145v133h-145v86q0 25 4 42.5t12 33.5q20 31 56 31q29 0 51.5 -6.5t34.5 -14.5v148q-31 10 -58 10l-63 4q-94 0 -148 -65q-51 -66 -51 -172v-97h-119v-133z" />
<glyph unicode="g" horiz-adv-x="702" d="M25 352q0 -152 57 -246q70 -106 197 -106q70 0 122 31.5t74 79.5q0 -31 -2 -57.5t-4 -49.5q-10 -47 -20 -72q-47 -90 -162 -90q-41 0 -99.5 18.5t-95.5 43.5v-154q61 -29 111 -39q25 -8 51 -8q8 0 16 -2h17h20q182 0 266 115q66 90 66 252v628h-156l-2 -94q-39 63 -83 87 t-109 24q-133 0 -203 -119q-61 -102 -61 -242zM193 352q0 94 30 150q42 69 113 69h2q20 0 33.5 -4t27.5 -12q25 -16 45 -47q31 -56 31 -152q0 -98 -34.5 -156.5t-108.5 -58.5q-66 0 -103 66q-37 68 -36 145z" />
<glyph unicode="h" horiz-adv-x="702" d="M63 0h164v340q0 41 8.5 83t18.5 66q37 82 117 82q72 0 92 -69q12 -41 12 -131v-371h164v438q0 125 -54.5 200t-158.5 75q-63 0 -115 -31q-27 -16 -49 -35q-18 -18 -35 -45v412h-164v-1014z" />
<glyph unicode="i" horiz-adv-x="296" d="M68 0h161v696h-161v-696zM68 823h161v172h-161v-172z" />
<glyph unicode="j" horiz-adv-x="296" d="M-37 -158v-129q37 -12 80 -12q55 0 94 23.5t62 64.5q30 64 30 162v745h-161v-721q0 -43 -6.5 -69.5t-14.5 -38.5q-23 -25 -84 -25zM68 823h161v172h-161v-172z" />
<glyph unicode="k" horiz-adv-x="634" d="M68 0h161l2 338l211 -338h207l-264 385l233 311h-190l-199 -278v596h-161v-1014z" />
<glyph unicode="l" horiz-adv-x="296" d="M68 0h161v1014h-161v-1014z" />
<glyph unicode="m" horiz-adv-x="1040" d="M61 0h164v338q0 96 21 151q31 82 100 82q63 0 82 -55q8 -14 8 -39q0 -8 2 -16v-19v-26v-416h164v338q0 96 21 151q31 82 102 82q63 0 82 -55q8 -14 8 -39q0 -8 2 -16v-19v-26v-416h164v438q0 123 -46 199t-153 76q-31 0 -57.5 -9.5t-56.5 -23.5q-61 -39 -82 -90 q-35 72 -72 94q-23 16 -50.5 22.5t-62.5 6.5q-16 0 -26 -2t-24.5 -6.5t-28 -9.5t-23.5 -9q-47 -29 -86 -88v98h-152v-696z" />
<glyph unicode="n" horiz-adv-x="702" d="M63 0h164v340q0 41 8.5 83t18.5 66q37 82 117 82q72 0 92 -69q12 -41 12 -131v-371h164v438q0 125 -54.5 200t-158.5 75q-23 0 -50.5 -3t-68.5 -26q-55 -29 -90 -82v94h-154v-696z" />
<glyph unicode="o" horiz-adv-x="702" d="M25 344q0 -158 88 -258t237 -100q154 0 240 98q88 102 88 260q0 170 -92 268q-94 100 -236 101q-141 0 -235 -101q-49 -53 -69.5 -117.5t-20.5 -150.5zM193 365q0 86 41.5 146t115.5 60q76 0 117 -61q23 -35 31 -66q6 -20 8 -37t2 -42q0 -49 -9.5 -91.5t-23.5 -72.5 q-39 -76 -125 -76q-84 0 -125 78q-32 57 -32 156v6z" />
<glyph unicode="p" horiz-adv-x="702" d="M63 -283h164v363q45 -61 86 -77.5t99 -16.5q68 0 121 28.5t85 81.5q60 100 60 254q0 160 -60 254q-70 109 -202 109q-68 0 -119 -31q-49 -37 -78 -84v98h-156v-979zM227 350q0 82 39 151.5t109 69.5q74 0 106 -75q27 -56 27 -146q0 -82 -29 -149q-37 -76 -106 -76 q-78 0 -115 76q-31 63 -31 149z" />
<glyph unicode="q" horiz-adv-x="702" d="M25 350q0 -160 59 -256q71 -108 203 -108h2q57 0 100 16q41 20 86 78v-363h164v979h-156l-2 -98q-35 61 -78 84q-27 16 -53 23q-18 6 -28.5 7t-32.5 1q-139 0 -207 -109q-57 -90 -57 -254zM193 350q0 49 8 80q6 39 20 66q38 75 105 75h2q76 0 114 -75q33 -58 33 -146 q0 -43 -9 -81t-24 -68q-39 -76 -110 -76q-74 0 -111 78q-16 31 -22 66.5t-6 80.5z" />
<glyph unicode="r" horiz-adv-x="452" d="M68 0h161v256l4 104q6 51 13 76q31 102 116 103q56 -1 72 -15v183q-23 6 -49 6q-53 0 -95 -38t-63 -79q-8 -14 -11 -27.5t-5 -29.5v157h-143v-696z" />
<glyph unicode="s" horiz-adv-x="512" d="M31 496q0 -141 141 -193q141 -53 141 -102q0 -47 -39 -68q-29 -16 -69 -16q-49 0 -88 12q-47 12 -82 33v-148q12 -6 20 -8t25 -6l47 -6q25 -4 31 -5t14 -1l47 -2q113 0 182 51q82 63 82 174q0 143 -143 201q-141 57 -141 92q0 41 28 57q33 18 68 19q29 0 64.5 -3.5 t93.5 -25.5v135q-45 12 -70 17.5t-39 5.5l-33 4h-37q-104 0 -173.5 -56.5t-69.5 -160.5z" />
<glyph unicode="t" horiz-adv-x="452" d="M6 563h121v-354q0 -102 51 -166q29 -33 63.5 -45t84.5 -12l65 4l53 10v143q-35 -18 -77 -18q-43 0 -59.5 29.5t-16.5 85.5v323h145v133h-145v197h-164v-197h-121v-133z" />
<glyph unicode="u" horiz-adv-x="702" d="M63 256q0 -123 54.5 -196.5t158.5 -73.5q61 0 115 26q57 37 94 82v-94h154v696h-164v-340q0 -82 -29 -149q-39 -82 -114 -82q-72 0 -92 68q-12 39 -13 131v372h-164v-440z" />
<glyph unicode="v" horiz-adv-x="634" d="M-4 696l231 -696h185l229 696h-162l-155 -508l-154 508h-174z" />
<glyph unicode="w" horiz-adv-x="1040" d="M-6 696l211 -696h186l135 530l138 -530h190l193 696h-156l-131 -516l-137 516h-191l-129 -516l-137 516h-172z" />
<glyph unicode="x" horiz-adv-x="634" d="M-8 0h178l141 260l138 -260h196l-213 365l189 331h-172l-121 -227l-123 227h-193l195 -331z" />
<glyph unicode="y" horiz-adv-x="634" d="M-6 696l237 -729q0 -53 -29.5 -89t-74.5 -36q-53 0 -84 13l-12 -134q61 -20 116 -20q135 0 201 141q10 20 19 45q4 10 7 18.5t7 18.5l27 82l235 690h-166l-153 -508l-152 508h-178z" />
<glyph unicode="z" horiz-adv-x="567" d="M25 0h518v141h-322l311 406v149h-495v-141h303l-315 -408v-147z" />
<glyph unicode="{" horiz-adv-x="405" d="M23 358q39 0 68.5 -32.5t29.5 -102.5v-227q0 -88 57 -137q51 -45 125 -45h90v106h-55q-39 0 -50.5 22.5t-11.5 75.5v224q0 98 -49 141q-29 29 -86 35q57 8 88 37q25 18 35 53q8 16 10 32.5t2 41.5v233v27q0 12 3 20l8 29q16 23 51 22h55v109h-90q-74 0 -128 -48t-54 -134 v-240q0 -70 -33 -100q-29 -25 -65 -25v-117z" />
<glyph unicode="|" horiz-adv-x="352" d="M113 -14h127v1028h-127v-1028z" />
<glyph unicode="}" horiz-adv-x="405" d="M12 -80v-106h90q78 0 129 45q53 47 54 137v227q0 74 32 109q25 26 66 26v117q-41 0 -69.5 28.5t-28.5 96.5v240q0 88 -54 135q-29 27 -59.5 37t-69.5 10h-90v-109h54q33 0 49 -24q12 -29 12 -74v-233q0 -86 49 -129q33 -31 88 -37q-35 -6 -55.5 -14.5t-34.5 -20.5 q-41 -37 -44 -72t-3 -67v-224q0 -51 -12.5 -74.5t-48.5 -23.5h-54z" />
<glyph unicode="~" horiz-adv-x="729" d="M84 340l43 -119q25 59 49 78q16 12 27.5 16t27.5 4l35 -4l39 -12q16 -4 57 -29l27 -16l25 -12q43 -20 92 -21q31 0 52.5 14.5t31.5 24.5l31 37q14 20 24 43l-43 119q-35 -61 -55 -80q-29 -18 -45 -18q-8 2 -25.5 4t-25.5 4l-76 41q-20 12 -39 19t-33 13q-35 12 -74 13 q-23 0 -48 -10.5t-44 -28.5q-31 -33 -53 -80z" />
<glyph unicode="&#xab;" horiz-adv-x="675" d="M59 365l144 -279h153l-133 279l133 276h-153zM332 365l141 -279h156l-135 279l135 276h-156z" />
<glyph unicode="&#xac;" horiz-adv-x="675" d="M49 285h459v-148h117v269h-576v-121z" />
<glyph unicode="&#xad;" horiz-adv-x="675" d="M41 283h594v123h-594v-123z" />
<glyph unicode="&#xae;" horiz-adv-x="1069" d="M51 471q0 -203 146 -344q143 -141 340 -141q193 0 337 141q144 143 144 344q0 203 -144 344q-141 145 -337 146q-98 0 -186.5 -37t-157.5 -107q-141 -145 -142 -346zM190 471q0 172 101 274q100 106 246 107q145 0 243 -107q101 -106 101 -274t-101 -272 q-100 -106 -243 -107q-152 0 -250 105q-96 109 -97 274zM340 203h115v229h57l125 -229h123l-144 235q63 0 105 35q39 39 39 109q0 92 -56.5 127.5t-160.5 35.5h-203v-542zM455 522v133h82q59 0 81.5 -16t22.5 -45q0 -33 -16 -53q-18 -18 -76 -19h-94z" />
<glyph unicode="&#xb0;" horiz-adv-x="540" d="M66 713q0 41 15 77.5t43 64.5t63.5 44t78.5 16t80 -15t64.5 -43t44 -64.5t16.5 -79.5t-16.5 -80t-44 -64.5t-64.5 -43t-80 -15.5q-41 0 -76.5 15.5t-63.5 43t-44 64.5t-16 80zM121 713q0 -59 43 -103.5t102 -44.5q61 0 105 43q45 45 45 105q0 59 -44.5 102t-105.5 43 t-103 -42t-42 -103z" />
<glyph unicode="&#xb6;" horiz-adv-x="661" d="M-8 698q0 43 7 74t19 57q43 70 113 104t180 34h355v-37h-95v-1243h-55v1243h-133v-1243h-49v741q-70 4 -121 12.5t-84 24.5q-70 33 -100 92q-37 68 -37 141z" />
<glyph unicode="&#xb7;" horiz-adv-x="337" d="M96 449q0 31 20.5 51t53.5 20q31 0 51.5 -21.5t20.5 -49.5q0 -31 -21.5 -52.5t-50.5 -21.5q-33 0 -53.5 20.5t-20.5 53.5z" />
<glyph unicode="&#xbb;" horiz-adv-x="675" d="M47 86h156l141 279l-141 276h-156l135 -276zM322 86h151l143 279l-143 276h-151l131 -276z" />
<glyph unicode="&#xd7;" horiz-adv-x="675" d="M55 150l88 -89l195 197l194 -197l89 89l-197 194l197 195l-89 88l-194 -197l-195 197l-88 -88l197 -195z" />
<glyph unicode="&#xf7;" horiz-adv-x="675" d="M41 283h594v123h-594v-123zM252 115q0 -35 24 -62q27 -25 62 -24q37 0 61.5 25.5t24.5 60.5q0 37 -24.5 61.5t-61.5 24.5t-61.5 -25.5t-24.5 -60.5zM252 573q0 -37 24 -61q27 -25 62 -25q37 0 61.5 24.5t24.5 61.5q0 35 -24.5 60.5t-61.5 25.5t-62 -24q-25 -29 -24 -62z " />
<glyph unicode="&#xe00;" horiz-adv-x="204" />
<glyph unicode="&#xe01;" horiz-adv-x="655" d="M61 0h164v680h54q86 0 116 -43q35 -41 35 -133v-504h164v561q0 123 -71.5 190.5t-207.5 67.5h-254v-819z" />
<glyph unicode="&#xe02;" horiz-adv-x="634" d="M61 0h234q141 0 209.5 70.5t68.5 187.5v561h-163v-524q0 -156 -152 -156h-33v289q0 27 14.5 57.5t36.5 55.5q51 57 52 127v151h-267v-139h103v-33q0 -23 -14 -43q-8 -12 -16.5 -23.5t-20.5 -21.5q-51 -49 -52 -102v-457z" />
<glyph unicode="&#xe03;" horiz-adv-x="634" d="M41 668h123q0 -27 -14.5 -55.5t-36.5 -51.5q-51 -51 -52 -104v-457h234q141 0 209.5 70.5t68.5 187.5v561h-163v-524q0 -156 -152 -156h-33v289q0 27 13 57q8 16 18 30.5t20 27.5q51 57 52 125v151h-84l-58 -63l-61 63h-84v-151z" />
<glyph unicode="&#xe04;" horiz-adv-x="655" d="M61 0h164v322h123v161h-123v97q0 106 103 106q102 0 102 -106v-580h164v594q0 59 -21 98q-23 45 -55 74q-76 63 -190 63q-117 0 -192 -62t-75 -173v-594z" />
<glyph unicode="&#xe05;" horiz-adv-x="655" d="M61 0h164v322h123v161h-123v115q0 51 37 80l66 -53l67 53q35 -29 35 -80v-598h164v606q0 94 -48 151.5t-128 73.5l-90 -71l-90 71q-84 -23 -129 -73q-47 -63 -48 -152v-606z" />
<glyph unicode="&#xe06;" horiz-adv-x="655" d="M41 668h123q0 -57 -51 -113q-51 -57 -52 -100v-455h164v78q49 -57 97 -74q33 -12 98 -12q174 0 174 231v596h-164v-588q0 -55 -22.5 -83.5t-79.5 -28.5q-20 0 -37 8t-33 25q-33 33 -33 73v203q0 18 5.5 36.5t7.5 24.5q8 18 18 34t20 30q51 66 52 127v139h-86l-56 -63 l-61 63h-84v-151z" />
<glyph unicode="&#xe07;" horiz-adv-x="634" d="M47 496l37 -496h231q137 0 203 110.5t66 309.5q0 182 -68 285q-78 115 -229 114h-125v-139q154 0 207 -66q45 -57 45 -213q0 -141 -42 -201.5t-128 -60.5l-27 357h-170z" />
<glyph unicode="&#xe08;" horiz-adv-x="645" d="M31 348h71v-348h224q137 0 202.5 110.5t65.5 309.5q0 182 -76 289q-86 111 -250 110h-227v-139h154q131 0 184 -72q45 -63 45 -207q0 -145 -37 -203.5t-121 -58.5v363h-235v-154z" />
<glyph unicode="&#xe09;" horiz-adv-x="665" d="M20 356h52v-141q0 -53 12 -96q14 -47 33 -72q49 -55 129 -55l59 4l49 10q49 18 86 72v-78h164v518q0 139 -80 217q-41 45 -93 64.5t-126 19.5h-233v-139h155q213 0 213 -199v-256q0 -39 -34 -73q-33 -33 -68 -33q-61 0 -81.5 26.5t-20.5 85.5v279h-216v-154z" />
<glyph unicode="&#xe0a;" horiz-adv-x="634" d="M51 680h90v-23q0 -33 -41 -77q-39 -45 -39 -101v-479h275q135 0 196 86q31 43 46.5 107.5t15.5 156.5q0 80 -35 146q-16 35 -40.5 57t-51.5 33q61 18 92 71q20 27 27 68q8 31 8 53v41h-162q0 -45 -6 -76q-4 -16 -8 -28.5t-8 -20.5q-23 -41 -82 -47v-123q53 -16 73 -59 q29 -47 29 -115q0 -119 -34 -165t-124 -46h-47v322q0 18 11 53q12 31 28 53q23 31 32 54.5t9 52.5v145h-254v-139z" />
<glyph unicode="&#xe0b;" horiz-adv-x="645" d="M31 668h123q2 -18 -12.5 -42t-31 -48.5t-29.5 -49t-9 -49.5v-479h274q135 0 196.5 85t61.5 265q0 39 -8 77t-24.5 69.5t-40 55t-54.5 34.5q61 18 92 71q20 27 27 68q6 31 7 53.5t1 40.5h-162q0 -45 -6 -76q-4 -16 -8 -28.5t-8 -20.5q-23 -41 -82 -47v-123q49 -12 74 -59 q29 -47 28 -115q0 -63 -10 -110q-8 -41 -27 -66q-39 -45 -120 -45h-47v332q0 23 7 43t21 43q29 45 41 74.5t12 52.5v145h-81l-60 -63l-59 63h-86v-151z" />
<glyph unicode="&#xe0c;" horiz-adv-x="1024" d="M61 0h246v139h-82v541h54q152 0 151 -176v-504h164v78q45 -51 86 -70q49 -16 104 -16q82 0 129 55q50 62 50 166v606h-164v-590q0 -55 -25 -82q-23 -29 -78 -28q-41 0 -71.5 32.5t-30.5 73.5v336q0 123 -71.5 190.5t-207.5 67.5h-254v-819z" />
<glyph unicode="&#xe0d;" horiz-adv-x="1024" d="M61 0h246v139h-82v541h54q152 0 151 -174v-197q0 -55 12 -100q14 -47 39 -76t66 -45q37 -14 88 -14l47 4l43 12q45 23 74 60q0 -86 -54 -121q-47 -29 -151 -29h-164v-137h215q166 0 242 75.5t76 249.5v631h-164v-512q0 -29 -8 -47q-6 -20 -21 -31q-27 -27 -74 -26 q-102 0 -102 104v256q0 121 -72 187q-70 70 -207 69h-254v-819z" />
<glyph unicode="&#xe0e;" horiz-adv-x="675" d="M0 0h246v680h53q152 0 152 -176v-651l-41 6l-33 8l-29 16q-4 4 -10 9.5t-10 9.5q-20 -27 -45 -37q-29 -12 -58 -12h-143v-138h106q47 0 80 11.5t60 40.5q31 -31 53 -39q27 -12 94 -13h139v848q0 119 -71.5 187.5t-206.5 68.5h-254v-680h-82v-139z" />
<glyph unicode="&#xe0f;" horiz-adv-x="675" d="M0 0h246v680h53q152 0 152 -174v-653q-86 0 -123 49q-29 -29 -47 -37q-29 -12 -76 -12v63h-144v-201h127q49 0 80 13q35 12 60 43q18 -23 32.5 -32t30.5 -13q14 -6 19.5 -7.5t15.5 -1.5q8 0 14 -2h15h20h139v848q0 119 -71.5 187.5t-206.5 68.5h-254v-680h-82v-139z" />
<glyph unicode="&#xe10;" horiz-adv-x="634" d="M31 348h71v-348h224q139 0 206 115q61 100 62 307q0 31 -2 56.5t-4 47.5q-4 23 -9.5 45.5t-13.5 42.5q-29 88 -92 148q61 18 88 45q37 33 37 74h-205l-2 -15q-8 -33 -33 -53l-61 6h-256v-139h154q131 0 184 -72q45 -63 45 -207q0 -145 -37 -203.5t-121 -58.5v363h-235 v-154zM41 -147v-138h106q47 0 80 11.5t60 40.5q31 -31 53 -39q27 -12 94 -13h139v222h-163v-84l-43 6l-33 8q-16 8 -27.5 16t-19.5 19q-37 -49 -103 -49h-143z" />
<glyph unicode="&#xe11;" horiz-adv-x="665" d="M31 668h102q0 -25 -43 -99q-18 -41 -18 -71v-498h164v496q0 90 45 153q39 51 86 51q35 0 53 -32q20 -27 20 -80v-588h164v596q0 111 -41 172t-123 61q-23 0 -47 -8l-51 -18q-51 -29 -66 -64v80h-63l-59 -63l-60 63h-63v-151z" />
<glyph unicode="&#xe12;" horiz-adv-x="993" d="M20 410q0 -43 3.5 -89.5t7.5 -78.5q12 -76 28 -123q51 -119 168 -119h70v139q-59 0 -83 53.5t-24 200.5q0 27 1.5 52.5t3.5 52.5q4 27 8 46t8 36q12 41 24.5 61.5t24.5 28.5l68 -54l71 60v-676h164v78q45 -51 86 -70q49 -16 105 -16q82 0 130 58.5t48 162.5v606h-164 v-590q0 -111 -102 -110q-41 0 -72 32.5t-31 73.5v594h-164l-71 -53l-72 63q-129 0 -186 -129q-49 -109 -50 -290z" />
<glyph unicode="&#xe13;" horiz-adv-x="1024" d="M61 0h246v139h-82v541h54q152 0 151 -176v-281q0 -111 51 -171t129 -60q55 0 105 16q49 20 84 70v-78h164v819h-164v-594q0 -43 -32 -74.5t-71 -31.5q-29 0 -49 6q-23 10 -31 20q-18 23 -20 46.5t-2 39.5v330q0 123 -71.5 190.5t-207.5 67.5h-254v-819z" />
<glyph unicode="&#xe14;" horiz-adv-x="624" d="M20 401q0 -104 11.5 -174.5t36.5 -124.5q53 -102 168 -102h61v139q-57 0 -82 60.5t-25 201.5q0 279 154 279h55v-680h164v819l-258 4q-147 0 -221 -129q-63 -113 -64 -293z" />
<glyph unicode="&#xe15;" horiz-adv-x="624" d="M20 410q0 -43 3.5 -89.5t7.5 -78.5q12 -76 28 -123q51 -119 168 -119h70v139q-59 0 -83 53.5t-24 200.5q0 27 1.5 52.5t3.5 52.5q4 27 8 46t8 36q12 41 24.5 61.5t24.5 28.5l68 -54l71 60v-676h164v819h-164l-71 -53l-72 63q-129 0 -186 -129q-49 -109 -50 -290z" />
<glyph unicode="&#xe16;" horiz-adv-x="655" d="M61 0h246v139h-82v541h54q152 0 151 -176v-504h164v561q0 123 -71.5 190.5t-207.5 67.5h-254v-819z" />
<glyph unicode="&#xe17;" horiz-adv-x="655" d="M61 0h164v598q0 39 31 74q35 33 72 33q57 0 80 -31q18 -23 20 -46.5t2 -39.5v-588h164v604q0 113 -49 169t-142 56q-104 0 -178 -84v74h-164v-819z" />
<glyph unicode="&#xe18;" horiz-adv-x="593" d="M31 647q0 -25 8 -43q8 -20 20 -35q35 -41 125 -92q41 -27 69 -43t40 -24q92 -68 92 -148q0 -61 -50 -92t-130 -31v279h-164v-418h287q104 0 170.5 70.5t66.5 187.5q0 164 -157 260q-18 16 -56 35l-45 25q-86 55 -86 77q2 20 17 21l26 4h37h211v139h-266 q-104 0 -159.5 -48t-55.5 -124z" />
<glyph unicode="&#xe19;" horiz-adv-x="655" d="M61 223q0 -111 51.5 -171t129.5 -60q55 0 104 16q49 20 84 70v-78h164v819h-164v-594q0 -43 -31.5 -74.5t-70.5 -31.5q-53 0 -80 26q-20 23 -21.5 45.5t-1.5 40.5v588h-164v-596z" />
<glyph unicode="&#xe1a;" horiz-adv-x="655" d="M61 240q0 -125 76 -193q66 -57 191 -57q123 0 194.5 65.5t71.5 184.5v579h-164v-575q0 -113 -102 -113t-103 113v575h-164v-579z" />
<glyph unicode="&#xe1b;" horiz-adv-x="655" d="M61 240q0 -125 76 -193q66 -57 191 -57q123 0 194.5 65.5t71.5 184.5v743h-164v-739q0 -113 -102 -113t-103 113v575h-164v-579z" />
<glyph unicode="&#xe1c;" horiz-adv-x="819" d="M61 229q0 -106 58 -170q63 -59 164 -59h22h25l82 61l77 -61h13h14h21q111 0 166 62.5t55 166.5v590h-164v-575q0 -104 -90 -105h-12v680h-164v-680h-13q-90 0 -90 105v374q0 37 11 48q14 12 51 12v141h-74q-76 0 -114 -45t-38 -110v-435z" />
<glyph unicode="&#xe1d;" horiz-adv-x="819" d="M61 229q0 -106 58 -170q63 -59 164 -59h22h25l82 61l77 -61h13h14h21q111 0 166 62.5t55 166.5v754h-164v-739q0 -104 -90 -105h-12v680h-164v-680h-13q-90 0 -90 105v374q0 37 11 48q14 12 51 12v141h-74q-76 0 -114 -45t-38 -110v-435z" />
<glyph unicode="&#xe1e;" horiz-adv-x="819" d="M61 229q0 -106 58 -170q63 -59 164 -59h22h25l82 61l77 -61h13h14h21q111 0 166 62.5t55 166.5v590h-164v-575q0 -104 -90 -105h-12v680h-164v-680h-13q-90 0 -90 105v575h-164v-590z" />
<glyph unicode="&#xe1f;" horiz-adv-x="819" d="M61 229q0 -106 58 -170q63 -59 164 -59h22h25l82 61l77 -61h13h14h21q111 0 166 62.5t55 166.5v754h-164v-739q0 -104 -90 -105h-12v680h-164v-680h-13q-90 0 -90 105v575h-164v-590z" />
<glyph unicode="&#xe20;" horiz-adv-x="675" d="M0 0h246v680h53q152 0 152 -176v-504h163v561q0 123 -71.5 190.5t-206.5 67.5h-254v-680h-82v-139z" />
<glyph unicode="&#xe21;" horiz-adv-x="655" d="M61 0h164v78q45 -51 86 -70q49 -16 105 -16q82 0 130 58.5t48 162.5v606h-164v-590q0 -53 -23.5 -81.5t-78.5 -28.5q-41 0 -72 33.5t-31 72.5v594h-164v-819z" />
<glyph unicode="&#xe22;" horiz-adv-x="655" d="M41 225q0 -104 63 -168q70 -59 177 -59l313 2v819h-164v-303l-94 -2q-14 0 -26.5 1t-24.5 3q-31 10 -39 17q-35 23 -35 69q0 82 86 82v133h-70q-82 0 -133 -54t-51 -136q0 -76 33 -121q37 -51 96 -66q-31 -14 -51 -34q-10 -10 -20.5 -21.5t-20.5 -26.5q-39 -57 -39 -135z M209 248q0 61 37 90q39 33 98 33h86v-232l-80 -2q-66 0 -104 27q-37 31 -37 84z" />
<glyph unicode="&#xe23;" horiz-adv-x="583" d="M31 625q0 -70 51 -133q12 -16 31 -31l8 -8t8 -11q14 -12 30.5 -25.5t37.5 -27.5q4 -2 29.5 -21.5t40 -29.5t27.5 -22.5t23 -26.5q45 -51 45 -96q-2 -33 -34 -43q-14 -6 -21.5 -7.5t-23.5 -1.5q-8 0 -15 -2h-24h-27h-166v-139h281q98 0 154.5 53.5t56.5 147.5 q0 82 -49 149q-33 51 -117 107l-88 63q-78 66 -78 113q0 35 34 41t68 6h199v139h-248q-113 0 -174 -55q-33 -31 -45 -64q-14 -31 -14 -75z" />
<glyph unicode="&#xe24;" horiz-adv-x="655" d="M61 0h246v139h-82v541h54q152 0 151 -176v-768h164v827q0 121 -72 187q-70 70 -207 69h-254v-819z" />
<glyph unicode="&#xe25;" horiz-adv-x="655" d="M31 256q0 -61 12 -106q16 -51 37 -82q51 -68 160 -68h67v139q-12 0 -22.5 2t-18.5 4q-10 4 -18 10.5t-17 12.5q-31 31 -30 84q0 76 41 106q25 18 51 25q16 6 27.5 7t35.5 1l74 -2v-389h164v555q0 117 -70 193q-37 39 -88 55t-121 16h-233v-139h156q92 0 142 -29.5 t50 -97.5v-25l-102 2q-125 0 -203 -59q-94 -74 -94 -215z" />
<glyph unicode="&#xe26;" horiz-adv-x="675" d="M0 0h246v680h53q152 0 152 -176v-768h163v827q0 119 -71.5 187.5t-206.5 68.5h-254v-682h-82v-137z" />
<glyph unicode="&#xe27;" horiz-adv-x="573" d="M41 0h207q152 0 223 121q61 106 61 299q0 170 -71 278q-80 121 -225 121h-195v-139h92q121 0 176 -70q29 -37 41 -87t12 -122q0 -141 -45 -201.5t-155 -60.5h-121v-139z" />
<glyph unicode="&#xe28;" horiz-adv-x="675" d="M61 0h164v322h123v161h-123v97q0 27 8 45q8 16 25 32q35 29 80 29q49 0 80 -31q33 -31 33 -75v-580h163v594q0 113 -84 174q49 18 74 43q31 33 31 70h-205l-6 -27q-6 -16 -18 -31l-68 6q-113 0 -197 -65q-80 -66 -80 -170v-594z" />
<glyph unicode="&#xe29;" horiz-adv-x="655" d="M61 240q0 -125 76 -193q66 -57 191 -57q123 0 194.5 65.5t71.5 184.5v149h61v152h-61v278h-164v-278h-102v-152h102v-145q0 -113 -102 -113t-103 113v575h-164v-579z" />
<glyph unicode="&#xe2a;" horiz-adv-x="655" d="M31 256q0 -61 12 -106q16 -51 37 -82q51 -68 160 -68h67v139q-12 0 -22.5 2t-18.5 4q-10 4 -18 10.5t-17 12.5q-31 31 -30 84q0 76 41 106q25 18 51 25q16 6 27.5 7t35.5 1l74 -2v-389h164v555q0 145 -92 213q90 35 102 113h-205l-2 -15q-8 -35 -26 -53l-56 6h-233v-139 h156q92 0 142 -29.5t50 -97.5v-25l-102 2q-125 0 -203 -59q-94 -74 -94 -215z" />
<glyph unicode="&#xe2b;" horiz-adv-x="655" d="M61 0h164v422q0 39 31 76q35 37 66 37q109 0 108 -97v-438h164v455q0 113 -49 169t-142 56q-51 0 -102 -29q-45 -27 -76 -76v244h-164v-819zM291 680h303v139h-303v-139z" />
<glyph unicode="&#xe2c;" horiz-adv-x="819" d="M61 229q0 -106 58 -170q63 -59 164 -59h22h25l82 61l77 -61h13h14h21q111 0 166 62.5t55 166.5v324q0 82 -30 134t-97 77q80 18 110 61q27 35 27 88h-178q0 -45 -33 -69.5t-106 -24.5h-123v-119h123q143 0 143 -145v-311q0 -104 -90 -105h-12v490h-164v-490h-13 q-90 0 -90 105v575h-164v-590z" />
<glyph unicode="&#xe2d;" horiz-adv-x="655" d="M61 0h289q141 0 202.5 104.5t61.5 303.5q0 186 -71 292q-86 119 -256 119h-226v-139h154q70 0 118 -20.5t70 -55.5q41 -59 41 -203q0 -141 -42 -201.5t-115 -60.5h-62v217h103v154h-267v-510z" />
<glyph unicode="&#xe2e;" horiz-adv-x="655" d="M61 0h289q141 0 202.5 104.5t61.5 303.5q0 61 -8 113t-22 97q-31 94 -95 140q98 37 109 123h-205l-4 -15q-10 -35 -24 -53l-78 6h-226v-139h154q70 0 118 -20.5t70 -55.5q41 -59 41 -203q0 -141 -42 -201.5t-115 -60.5h-62v217h103v154h-267v-510z" />
<glyph unicode="&#xe2f;" horiz-adv-x="634" d="M41 623q0 -94 58.5 -141.5t133.5 -47.5l50 2l47 13q45 14 80 49v-498h163v819h-163v-145q0 -61 -29 -90q-33 -27 -80 -27q-45 0 -72 21q-25 20 -24 69v33h61v139h-225v-196z" />
<glyph unicode="&#xe30;" horiz-adv-x="286" d="M31 164q0 -47 32 -80q35 -33 80 -33q47 0 78 33q20 23 27.5 40t7.5 40q0 47 -35 78q-35 35 -78 34q-41 0 -80 -34q-33 -33 -32 -78zM31 655q0 -45 32 -80q33 -33 80 -32q45 0 78 32q35 35 35 80q0 47 -35 78q-35 35 -78 35q-45 0 -80 -35q-33 -33 -32 -78z" />
<glyph unicode="&#xe31;" d="M-377 901h418v103h-254v71h-164v-174z" />
<glyph unicode="&#xe32;" horiz-adv-x="501" d="M10 680h64q115 0 158.5 -55.5t43.5 -171.5v-453h164v508q0 145 -69 227q-70 84 -209 84h-152v-139z" />
<glyph unicode="&#xe33;" horiz-adv-x="501" d="M-242 997q0 -43 28 -69.5t73 -26.5q43 0 71 29q10 10 19.5 24t9.5 43q0 45 -29 70q-33 27 -71 27q-43 0 -72 -29q-16 -18 -22.5 -32.5t-6.5 -35.5zM10 680h64q115 0 158.5 -55.5t43.5 -171.5v-453h164v508q0 145 -69 227q-70 84 -209 84h-152v-139z" />
<glyph unicode="&#xe34;" d="M-561 901h502v103h-502v-103z" />
<glyph unicode="&#xe35;" d="M-561 901h502v184h-164v-81h-338v-103z" />
<glyph unicode="&#xe36;" d="M-561 901h420q45 0 78 27q28 28 28 69q0 45 -28 70q-33 27 -78 27q-94 0 -107 -90h-313v-103z" />
<glyph unicode="&#xe37;" d="M-561 901h502v184h-164v-81h-62v81h-123v-81h-153v-103z" />
<glyph unicode="&#xe38;" d="M-299 -80v-123h76v-133h164v256h-240z" />
<glyph unicode="&#xe39;" d="M-526 -80v-123h65v-143h217q86 0 135.5 46t49.5 128v92h-164v-70q0 -66 -66 -65h-28v135h-209z" />
<glyph unicode="&#xe3a;" d="M-244 -182q0 -41 33 -72t70 -31q41 0 71 31q31 33 31 72q0 41 -31 71q-35 31 -71 31q-41 0 -72 -31.5t-31 -70.5z" />
<glyph unicode="&#xe3f;" horiz-adv-x="743" d="M98 0h254v-119h58v119q109 0 184 51q100 69 100 221q0 88 -53 148q-31 33 -63 47q-33 18 -78 25q82 14 123 69q27 33 37 64.5t10 76.5q0 131 -90 197q-63 45 -170 45v113h-58v-113h-254v-944zM268 150v272h84l-4 -272h-80zM268 563v232h66h18v-232h-14h-70zM410 154v264 q55 -10 84 -39q30 -35 30 -98q0 -27 -9 -50.5t-23 -37.5q-37 -31 -82 -39zM410 569v219q49 -16 65 -34q25 -29 25 -76q0 -49 -25 -74q-18 -25 -65 -35z" />
<glyph unicode="&#xe40;" horiz-adv-x="307" d="M72 0h164v819h-164v-819z" />
<glyph unicode="&#xe41;" horiz-adv-x="552" d="M72 0h164v819h-164v-819zM317 0h164v819h-164v-819z" />
<glyph unicode="&#xe42;" horiz-adv-x="389" d="M-4 1112q0 -43 37 -94q80 -109 80 -146v-872h245v137h-82v758q0 76 -57 131q-14 14 -24.5 25.5t-18.5 21.5q-8 12 -14 19q0 33 29.5 44t80.5 11l148 -4v127l-197 4q-57 0 -99 -12.5t-73 -32.5q-55 -47 -55 -117z" />
<glyph unicode="&#xe43;" horiz-adv-x="389" d="M-84 1092h150q0 72 77 71q78 0 78 -78q0 -39 -35 -79q-74 -90 -73 -144v-862h245v137h-82v713q0 29 9 51q8 25 24 47q72 105 72 164q0 78 -53.5 128t-145.5 50h-71q-82 0 -138.5 -48t-56.5 -124v-26z" />
<glyph unicode="&#xe44;" horiz-adv-x="389" d="M-70 1143l131 4q123 0 123 -62q0 -29 -24 -65q-47 -72 -47 -127v-893h245v137h-82v737q0 27 11 64q6 18 13 33.5t15 29.5q39 63 39 121q0 152 -225 152l-199 -4v-127z" />
<glyph unicode="&#xe45;" horiz-adv-x="501" d="M10 680h64q115 0 158.5 -55.5t43.5 -171.5v-717h164v772q0 145 -69 227q-70 84 -209 84h-152v-139z" />
<glyph unicode="&#xe46;" horiz-adv-x="624" d="M20 569q0 -182 109 -221q23 -8 45.5 -11t52.5 -3h70v127h-14q-41 0 -68 22q-25 27 -25 72q6 53 15 72q20 33 53 45l66 -66l75 76v-946h164v1083h-176l-59 -63l-72 73q-119 0 -180 -79q-31 -37 -43.5 -81t-12.5 -100z" />
<glyph unicode="&#xe47;" d="M-541 901h107q76 0 119 49q29 -35 47 -41t30 -8h41h107v150h-133v-47q-68 0 -92 43q-29 -43 -93 -43v16q0 66 99 65h219v140h-133v-54h-125q-98 0 -145.5 -44t-47.5 -117v-109z" />
<glyph unicode="&#xe48;" d="M-223 1126h164v164h-164v-164z" />
<glyph unicode="&#xe49;" d="M-328 1204h56v-78h272v88h-133v78h-195v-88z" />
<glyph unicode="&#xe4a;" d="M-365 1126h107v66l43 -39l49 39v-66h72q61 0 99 38t38 124h-84l-2 -41l-6 -26l-10 -15q0 20 -7.5 35.5t-15.5 24.5q-27 23 -82 22l-47 -49l-49 49h-10q-55 0 -75 -24.5t-20 -57.5v-80z" />
<glyph unicode="&#xe4b;" d="M-266 1184h63v-58h123v58h64v78h-64v57h-123v-57h-63v-78z" />
<glyph unicode="&#xe4c;" d="M-252 1065h139v27q0 43 50 43h34v86h-84q-139 0 -139 -115v-41z" />
<glyph unicode="&#xe4d;" d="M-242 997q0 -43 28 -69.5t73 -26.5q43 0 71 29q10 10 19.5 24t9.5 43q0 45 -29 70q-33 27 -71 27q-43 0 -72 -29q-16 -18 -22.5 -32.5t-6.5 -35.5z" />
<glyph unicode="&#xe4e;" d="M-522 1151q0 -43 38 -75t97 -38l14 -2h13q27 0 59 8l65 19l56 24l-53 91q-14 -10 -29 -19l-31 -10l-35 -8l-28 -2q-35 0 -41 16q0 27 16 39q18 18 59 29q37 14 64 14l31 2l37 2l32 -2h13v94h-5h-18l-37 2l-33 6q-29 10 -28 31q6 18 22 29q10 4 20.5 9t16.5 7q20 6 45 13 q43 14 103 14l39 2h51v106h-4h-27l-135 -8q-43 -4 -75 -11t-52 -15q-59 -25 -92 -64q-39 -45 -39 -82q0 -43 28 -67l-32 -11l-35 -14q-41 -18 -64 -53q-27 -33 -26 -76z" />
<glyph unicode="&#xe4f;" horiz-adv-x="942" d="M51 410q0 -172 125 -295t295 -123q172 0 295 123q125 125 125 295q0 174 -125 297q-127 123 -295 122q-172 0 -297 -124q-123 -127 -123 -295zM113 410q0 147 106 252q106 106 252 106q141 0 249.5 -104t108.5 -254t-106 -254q-104 -104 -252 -105q-150 0 -254 104.5 t-104 254.5zM215 410q0 -109 76 -182.5t180 -73.5q106 0 180 75q76 77 76 181q0 53 -20.5 99t-55.5 81q-76 76 -180 76q-57 0 -100 -21q-49 -23 -82 -55q-74 -78 -74 -180zM276 410q0 39 15.5 74.5t42 62t61.5 42t76 15.5q39 0 75 -15.5t62.5 -42t42 -62t15.5 -74.5 q0 -41 -15.5 -76t-42 -61.5t-62.5 -42t-75 -15.5q-45 0 -76 14q-35 14 -61 43q-57 57 -58 138z" />
<glyph unicode="&#xe50;" horiz-adv-x="655" d="M31 295q0 -156 74.5 -225.5t222.5 -69.5q297 0 297 295v45q0 156 -74 223q-74 72 -223 72q-145 0 -224 -72q-74 -74 -73 -223v-45zM201 315q0 178 127 179q127 -1 127 -179t-127 -178t-127 178z" />
<glyph unicode="&#xe51;" horiz-adv-x="655" d="M61 0h244q158 0 233.5 71.5t75.5 225.5q0 45 -4 79t-12 64q-18 63 -47 99q-63 76 -201 75h-289v-395h246v121h-82v143h62q78 0 119 -34q39 -37 38 -134q0 -115 -53 -151q-47 -33 -176 -33h-154v-131z" />
<glyph unicode="&#xe52;" horiz-adv-x="870" d="M61 0h512q131 0 185 66q51 71 51 202v336h-176l-60 -59l-71 69q-117 0 -166 -58t-49 -169q0 -119 44 -161t136 -42h76v115h-15q-92 0 -92 88q0 37 23 64q27 27 47 30l67 -61l72 72v-218q0 -82 -36 -118.5t-122 -36.5h-262v700h-164v-819z" />
<glyph unicode="&#xe53;" horiz-adv-x="645" d="M41 307q0 -86 9 -144.5t32.5 -95t63.5 -52t102 -15.5h69v131h-8q-51 0 -69 23q-29 29 -29 135q0 66 18 114q23 55 54 66l65 -66l72 80v-483h164v614h-176l-60 -61l-72 72q-123 0 -179 -85t-56 -233z" />
<glyph unicode="&#xe54;" horiz-adv-x="686" d="M41 279q0 -156 80 -220q39 -33 94 -45q33 -8 63.5 -11t73.5 -3h293v129h-135q68 33 68 102q-6 53 -33 80q-33 33 -80 33t-80 -32.5t-33 -80.5q0 -76 68 -102q-59 0 -101.5 9t-62.5 24q-45 33 -45 123q0 104 44 147t130 43h260v344h-164v-215h-127q-160 0 -236.5 -76.5 t-76.5 -248.5z" />
<glyph unicode="&#xe55;" horiz-adv-x="768" d="M41 279q0 -156 80 -220q39 -33 94 -45q33 -8 63.5 -11t73.5 -3h334v129h-156q68 33 68 102q0 49 -33 80q-33 33 -80 33q-49 0 -79 -33q-33 -33 -33 -80q0 -76 67 -102q-117 0 -176 35q-53 35 -53 121q0 104 44 147t130 43h342v344h-164v-215h-84q31 33 31 72q0 45 -33 78 q-35 31 -88 30q-27 0 -49.5 -9t-38.5 -23q-33 -33 -33 -76q0 -25 8.5 -41.5t24.5 -32.5q-260 -27 -260 -323z" />
<glyph unicode="&#xe56;" horiz-adv-x="655" d="M61 0h287q141 0 203.5 68.5t62.5 234.5q0 162 -77 229q-41 37 -97 56q-61 16 -135 16h-80v215h-164v-344h154q129 0 179 -40t50 -142q0 -98 -43 -135q-35 -29 -114 -29h-62v86h-164v-215z" />
<glyph unicode="&#xe57;" horiz-adv-x="890" d="M41 307q0 -86 9 -144.5t32.5 -95t63.5 -52t102 -15.5h69v131h-8q-51 0 -69 23q-29 29 -29 135q0 66 18 114q23 55 54 66l65 -66l72 80v-483h196q121 0 172 70q23 31 32 73t9 103v573h-163v-567q0 -131 -82 -131v493h-176l-60 -61l-72 72q-123 0 -179 -85t-56 -233z" />
<glyph unicode="&#xe58;" horiz-adv-x="645" d="M41 293q0 -74 14 -129q25 -92 77 -132t144 -40l72 71l60 -63h176v299h-164v-160l-72 72l-59 -61q-35 10 -49 32q-16 18 -22.5 47t-6.5 70q0 84 45 129q29 27 57.5 37t69.5 10h201v344h-164v-215h-94q-143 0 -214 -82t-71 -229z" />
<glyph unicode="&#xe59;" horiz-adv-x="790" d="M41 301q0 -170 41 -235q43 -66 166 -66h69v129h-8q-51 0 -69 23q-29 35 -29 133q0 90 27 135q23 35 57 41l158 -461h165l-79 227q-12 33 -13 76q0 70 38 121t108 51h98v344h-164v-215h-20q-53 0 -90 -30.5t-43 -88.5l-45 129h-132q-119 0 -176 -82q-33 -45 -45 -100 q-8 -31 -11 -60.5t-3 -70.5z" />
<glyph unicode="&#xe5a;" horiz-adv-x="860" d="M41 623q0 -90 59 -144q51 -45 125 -45q53 0 101 19q27 14 47 30.5t37 34.5v-518h163v487q59 23 103 78v-565h123v819h-123v-78q0 -57 -29 -98t-74 -47v223h-163v-160q0 -47 -29 -75.5t-76 -28.5q-100 0 -100 98v27h61v139h-225v-196z" />
<glyph unicode="&#xe5b;" horiz-adv-x="1495" d="M61 414q0 -80 21.5 -143.5t60.5 -112.5q86 -98 209 -99q135 0 246 119q33 35 51 76q20 37 56 141l16 -86q16 -59 57 -59q33 0 60 45q20 37 43 115l16 -50l12 -41q18 -45 37 -45q18 4 37 33q10 20 21.5 44t15.5 57l33 -70q23 -41 34 -41q23 4 41 39q6 8 13 29l12 38 l27 -53q18 -31 28 -31q25 6 33 15q16 16 23 39l168 16q63 8 63 45q0 39 -63 45l-179 17q-18 -4 -28 -23l-21 -33l-39 58q-25 29 -32 28q-18 0 -31 -30q-8 -16 -13.5 -30.5t-7.5 -25.5l-26 47l-19 29q-31 39 -49 39q-18 -2 -31 -29q-14 -27 -14 -61q-27 63 -47 90 q-25 37 -49 37q-31 0 -43 -19q-10 -16 -10 -45l-2 -71l-25 63l-23 45q-29 47 -55 47q-35 0 -47 -18q-12 -16 -23 -76q-25 -162 -93 -257t-160 -95q-82 0 -130.5 66.5t-48.5 173.5q0 27 3.5 51t7.5 49q14 49 30 82q43 74 105 74q61 0 84 -66h-10q-57 0 -95.5 -43t-38.5 -104 q0 -27 11 -58q10 -23 28 -45q41 -41 97 -41q33 0 60.5 15.5t47.5 41.5q43 61 43 146q0 57 -17.5 106.5t-48 84t-72.5 54t-91 19.5q-117 0 -193 -104q-76 -100 -76 -254zM358 453q0 51 48 51q23 -2 36 -16.5t13 -34.5q0 -51 -49 -52q-47 0 -48 52z" />
<glyph unicode="&#x2000;" horiz-adv-x="799" />
<glyph unicode="&#x2001;" horiz-adv-x="1599" />
<glyph unicode="&#x2002;" horiz-adv-x="799" />
<glyph unicode="&#x2003;" horiz-adv-x="1599" />
<glyph unicode="&#x2004;" horiz-adv-x="533" />
<glyph unicode="&#x2005;" horiz-adv-x="399" />
<glyph unicode="&#x2006;" horiz-adv-x="266" />
<glyph unicode="&#x2007;" horiz-adv-x="266" />
<glyph unicode="&#x2008;" horiz-adv-x="199" />
<glyph unicode="&#x2009;" horiz-adv-x="319" />
<glyph unicode="&#x200a;" horiz-adv-x="88" />
<glyph unicode="&#x2010;" horiz-adv-x="401" d="M41 293h319v143h-319v-143z" />
<glyph unicode="&#x2011;" horiz-adv-x="401" d="M41 293h319v143h-319v-143z" />
<glyph unicode="&#x2012;" horiz-adv-x="401" d="M41 293h319v143h-319v-143z" />
<glyph unicode="&#x2013;" horiz-adv-x="675" d="M0 283h676v123h-676v-123z" />
<glyph unicode="&#x2014;" horiz-adv-x="1351" d="M0 283h1352v123h-1352v-123z" />
<glyph unicode="&#x2018;" horiz-adv-x="337" d="M68 616h163v121q0 37 9 62q4 16 9 30.5t13 28.5q10 16 16.5 28.5t16.5 22.5q19 25 33 35h-154q-106 -88 -106 -209v-119z" />
<glyph unicode="&#x2019;" horiz-adv-x="337" d="M10 616h154q51 43 78.5 93t27.5 116v119h-164v-121q0 -66 -30 -121l-33 -51q-12 -18 -33 -35z" />
<glyph unicode="&#x201c;" horiz-adv-x="604" d="M68 616h163v121q0 37 9 62q4 16 9 30.5t13 28.5q10 16 16.5 28.5t16.5 22.5q19 25 33 35h-154q-106 -88 -106 -209v-119zM334 616h164v121q0 31 8 62q8 33 24 61q8 16 15.5 27.5t13.5 21.5q17 23 35 35h-154q-27 -23 -45 -46.5t-33 -45.5q-20 -31 -22 -55q-6 -29 -6 -62 v-119z" />
<glyph unicode="&#x201d;" horiz-adv-x="604" d="M10 616h154q51 43 78.5 93t27.5 116v119h-164v-121q0 -66 -30 -121l-33 -51q-12 -18 -33 -35zM276 616h154q27 23 45.5 44.5t32.5 48.5q29 50 29 116v119h-164v-121q0 -35 -8.5 -66.5t-22.5 -54.5q-35 -61 -66 -86z" />
<glyph unicode="&#x2022;" horiz-adv-x="942" d="M51 410q0 -172 125 -295t295 -123q172 0 295 123q125 125 125 295q0 174 -125 297q-127 123 -295 122q-172 0 -297 -124q-123 -127 -123 -295z" />
<glyph unicode="&#x2026;" horiz-adv-x="1105" d="M102 0h164v164h-164v-164zM471 0h164v164h-164v-164zM840 0h164v164h-164v-164z" />
<glyph unicode="&#x202f;" horiz-adv-x="319" />
<glyph unicode="&#x205f;" horiz-adv-x="399" />
<glyph unicode="&#xe000;" horiz-adv-x="696" d="M0 0v696h696v-696h-696z" />
<glyph unicode="&#xf700;" horiz-adv-x="634" d="M31 348h71v-348h224q139 0 206 115q61 100 62 307q0 31 -2 56.5t-4 47.5q-4 23 -9.5 45.5t-13.5 42.5q-29 88 -92 148q61 18 88 45q37 33 37 74h-205l-2 -15q-8 -33 -33 -53l-61 6h-256v-139h154q131 0 184 -72q45 -63 45 -207q0 -145 -37 -203.5t-121 -58.5v363h-235 v-154z" />
<glyph unicode="&#xf701;" d="M-592 1024h533v102h-533v-102z" />
<glyph unicode="&#xf702;" d="M-592 1024h533v184h-164v-82h-369v-102z" />
<glyph unicode="&#xf703;" d="M-592 1024h449q45 0 77 27q29 28 29 69q0 45 -29 70q-33 27 -77 27q-94 0 -107 -91h-342v-102z" />
<glyph unicode="&#xf704;" d="M-592 1024h533v184h-164v-82h-62v82h-123v-82h-184v-102z" />
<glyph unicode="&#xf705;" d="M-223 1024h164v205h-164v-205z" />
<glyph unicode="&#xf706;" d="M-356 1116h65v-92h322v102h-158v93h-229v-103z" />
<glyph unicode="&#xf707;" d="M-551 1024h133v80l53 -47l60 47v-80h90q80 0 127 43q45 47 45 158h-104q0 -88 -25 -103q0 45 -28.5 74t-92.5 29h-8l-59 -62l-60 62h-12q-61 0 -90 -29t-29 -74v-98z" />
<glyph unicode="&#xf708;" d="M-289 1092h76v-68h143v68h74v90h-74v67h-143v-67h-76v-90z" />
<glyph unicode="&#xf709;" d="M-442 954h163v33q0 49 58 49h41v103h-101q-70 0 -115.5 -35t-45.5 -100v-50z" />
<glyph unicode="&#xf70a;" d="M-223 901h164v205h-164v-205z" />
<glyph unicode="&#xf70b;" d="M-387 993h65v-92h322v103h-158v92h-229v-103z" />
<glyph unicode="&#xf70c;" d="M-545 901h133v80l54 -47l59 47v-80h90q80 0 127 43q45 47 45 158h-104q0 -45 -6.5 -68.5t-18.5 -34.5q0 45 -28.5 74t-92.5 29h-8l-59 -62l-60 62h-12q-66 0 -90 -29q-29 -29 -29 -74v-98z" />
<glyph unicode="&#xf70d;" d="M-289 969h76v-68h143v68h74v90h-74v67h-143v-67h-76v-90z" />
<glyph unicode="&#xf70e;" d="M-274 901h163v33q0 49 58 49h41v102h-101q-72 0 -116.5 -33.5t-44.5 -101.5v-49z" />
<glyph unicode="&#xf70f;" horiz-adv-x="1024" d="M61 0h246v139h-82v541h54q152 0 151 -174v-80q0 -106 59 -166q27 -27 61 -37t81 -10q27 0 48 4t46 12q29 14 41 27q10 8 18.5 16.5t14.5 16.5q0 -88 -47 -119q-43 -25 -89.5 -28t-68.5 -3h-164v-139h215q162 0 240 66.5t78 216.5v536h-164v-373q0 -51 -29 -77.5 t-74 -26.5q-102 0 -102 104v117q0 121 -72 187q-70 70 -207 69h-254v-819z" />
<glyph unicode="&#xf710;" d="M-377 1024h418v102h-254v72h-164v-174z" />
<glyph unicode="&#xf711;" d="M-242 1120q0 -43 28 -69.5t73 -26.5q43 0 71 29q12 12 20.5 25t8.5 42q0 45 -29 70q-33 27 -71 27q-49 -6 -72 -29q-16 -18 -22.5 -32.5t-6.5 -35.5z" />
<glyph unicode="&#xf712;" d="M-535 1024h97q70 0 106 43q29 -31 47 -35q18 -8 33 -8h27h96v133h-121v-41q-61 0 -82 39q-25 -39 -84 -39v14q0 59 88 60h199v125h-121v-49h-112q-172 0 -173 -146v-96z" />
<glyph unicode="&#xf713;" d="M-223 1249h164v164h-164v-164z" />
<glyph unicode="&#xf714;" d="M-328 1327h56v-78h272v88h-133v78h-195v-88z" />
<glyph unicode="&#xf715;" d="M-365 1249h107v66l43 -39l49 39v-66h72q61 0 99 38t38 124h-84q0 -39 -10 -70l-8 -12q0 20 -7.5 35.5t-15.5 24.5q-27 23 -82 22l-47 -49l-49 49h-10q-55 0 -75 -23.5t-20 -58.5v-80z" />
<glyph unicode="&#xf716;" d="M-266 1307h63v-58h123v58h64v77h-64v58h-123v-58h-63v-77z" />
<glyph unicode="&#xf717;" d="M-252 1188h139v26q0 43 50 43h34v86h-84q-139 0 -139 -114v-41z" />
<glyph unicode="&#xf718;" d="M-299 -346v-123h76v-133h164v256h-240z" />
<glyph unicode="&#xf719;" d="M-526 -346v-123h65v-143h217q86 0 135.5 44t49.5 130v92h-164v-70q0 -66 -66 -65h-28v135h-209z" />
<glyph unicode="&#xf71a;" d="M-264 -449q0 -41 31 -71q33 -31 71 -31q41 0 72 31q31 32 31 71q0 41 -31 72q-35 31 -72 31q-41 0 -71 -31q-31 -35 -31 -72z" />
<glyph unicode="&#xf71b;" d="M-481 -6h479v1214h-479v-1214z" />
<glyph unicode="&#xf71c;" horiz-adv-x="450" />
<glyph unicode="&#xf71d;" horiz-adv-x="450" d="M47 0v-195h35v72q35 23 76 23h123q53 0 86 -27v-68h34v195h-354z" />
</font>
</defs>
</svg>
